<?xml version="1.0" encoding="UTF-8" standalone="no"?>
<!-- Created with Inkscape (http://www.inkscape.org/) -->

<svg
   xmlns:dc="http://purl.org/dc/elements/1.1/"
   xmlns:cc="http://creativecommons.org/ns#"
   xmlns:rdf="http://www.w3.org/1999/02/22-rdf-syntax-ns#"
   xmlns:svg="http://www.w3.org/2000/svg"
   xmlns="http://www.w3.org/2000/svg"
   xmlns:sodipodi="http://sodipodi.sourceforge.net/DTD/sodipodi-0.dtd"
   xmlns:inkscape="http://www.inkscape.org/namespaces/inkscape"
   width="84.599388mm"
   height="113.02229mm"
   viewBox="0 0 299.76161 400.47266"
   id="svg4644"
   version="1.1"
   inkscape:version="0.91 r13725"
   sodipodi:docname="Alphabet19C.svg">
  <defs
     id="defs4646">
    <linearGradient
       x1="0"
       y1="0"
       x2="1"
       y2="0"
       gradientUnits="userSpaceOnUse"
       gradientTransform="matrix(-1.8e-5,412.18744,-412.18744,-1.8e-5,322.85754,408.64549)"
       spreadMethod="pad"
       id="linearGradient344">
      <stop
         style="stop-opacity:1;stop-color:#fdc82c"
         offset="0"
         id="stop346" />
      <stop
         style="stop-opacity:1;stop-color:#fdc82c"
         offset="0.239968"
         id="stop348" />
      <stop
         style="stop-opacity:1;stop-color:#236f46"
         offset="1"
         id="stop350" />
    </linearGradient>
  </defs>
  <sodipodi:namedview
     id="base"
     pagecolor="#ffffff"
     bordercolor="#666666"
     borderopacity="1.0"
     inkscape:pageopacity="0.0"
     inkscape:pageshadow="2"
     inkscape:zoom="1.3234361"
     inkscape:cx="149.8808"
     inkscape:cy="200.23634"
     inkscape:document-units="px"
     inkscape:current-layer="layer1"
     showgrid="false"
     fit-margin-top="0"
     fit-margin-left="0"
     fit-margin-right="0"
     fit-margin-bottom="0"
     inkscape:window-width="1366"
     inkscape:window-height="705"
     inkscape:window-x="-8"
     inkscape:window-y="-8"
     inkscape:window-maximized="1" />
  <metadata
     id="metadata4649">
    <rdf:RDF>
      <cc:Work
         rdf:about="">
        <dc:format>image/svg+xml</dc:format>
        <dc:type
           rdf:resource="http://purl.org/dc/dcmitype/StillImage" />
        <dc:title></dc:title>
      </cc:Work>
    </rdf:RDF>
  </metadata>
  <g
     inkscape:label="Layer 1"
     inkscape:groupmode="layer"
     id="layer1"
     transform="translate(-172.97634,-412.12587)">
    <path
       inkscape:connector-curvature="0"
       style="fill:url(#linearGradient344);stroke:none"
       d="m 349.37854,412.12587 c -12.5174,0 -24.7322,1.78828 -36.6522,5.36328 -11.92,3.57501 -23.6442,8.84046 -35.1642,15.79296 -21.45,13.31 -40.0298,29.79344 -55.7148,49.46094 -16.89,21.25501 -29.2566,44.10016 -37.1016,68.53516 -7.85,24.4325 -11.7694,48.3725 -11.7694,71.8125 0,23.8375 3.7692,46.28484 11.3242,67.33985 10.13,26.42 20.1588,46.19077 30.0938,59.30078 7.945,10.13249 20.3596,21.35438 37.242,33.67188 27.6126,19.465 57.411,29.19532 89.3986,29.19532 23.2424,0 45.6898,-6.8497 67.3398,-20.5547 15.8924,-10.1325 30.3938,-22.9464 43.5038,-38.4414 4.965,-6.9525 10.0292,-13.90438 15.1992,-20.85938 0.9876,-2.9825 2.1818,-5.36344 3.5744,-7.14844 1.3874,-1.79 2.0858,-3.08 2.0858,-3.875 -0.5974,-4.37 -2.7822,-7.54764 -6.5546,-9.53514 -2.98,4.9675 -5.9614,9.93734 -8.9414,14.90234 -8.745,11.52 -19.8662,20.8539 -33.3712,28.0039 -18.875,10.13 -41.0216,15.19532 -66.4492,15.19532 -39.5324,0 -74.7478,-18.96766 -105.6328,-56.91016 -30.8924,-37.9425 -46.332,-80.15562 -46.332,-126.64062 0,-24.4325 3.6734,-46.18642 11.0234,-65.25392 8.5376,-22.2475 21.5502,-39.23062 39.0352,-50.95312 8.94,-5.96 18.2728,-10.2275 28.0078,-12.8125 9.7326,-2.58 20.159,-3.875 31.289,-3.875 8.14,0 15.9392,0.49828 23.3868,1.48828 7.4524,0.9975 17.3324,3.37984 29.6524,7.15234 18.075,6.755 31.6802,17.58298 40.8202,32.48048 l -26.5194,16.39062 c -7.3476,4.765 -12.715,8.34156 -16.09,10.72656 -3.38,2.3825 -5.659,4.16938 -6.8514,5.35938 0.196,1.785 0.5428,3.57828 1.0428,5.36328 0.4926,1.79 1.8386,2.6875 4.0236,2.6875 0.79,0 1.9816,-0.30344 3.5742,-0.89844 l 91.1796,-47.97266 1.4884,-6.55468 c -6.5576,-16.09 -16.789,-29.30032 -30.6916,-39.63282 -10.725,-8.94 -22.0486,-15.68922 -33.9686,-20.26172 -13.7076,-5.3625 -29.2006,-8.04296 -46.4806,-8.04296 z m -4.7694,61.67968 c -6.1576,0.7975 -11.725,3.27532 -16.6876,7.44532 0.395,1.99 1.1928,4.575 2.3828,7.75 0,0.2 1.1956,3.1814 3.5782,8.9414 1.39,3.38 2.086,6.15876 2.086,8.34376 1.5874,4.3725 2.7258,11.3728 3.4258,21.0078 0.6924,9.6375 1.0428,18.12767 1.0428,25.47266 0.395,16.0925 0.7954,33.87484 1.1954,53.33984 0.3924,19.47251 0.5938,37.94438 0.5938,55.42189 l 0,6.25782 0,5.0664 0,4.17188 0,3.27734 c 0,8.15 -0.4014,12.61766 -1.1914,13.41016 -2.5826,4.9675 -6.9608,8.24452 -13.1134,9.83202 -15.895,-8.54 -27.4622,-17.97608 -34.7148,-28.30858 -7.25,-10.325 -10.875,-21.25094 -10.875,-32.77344 0,-8.5425 1.0874,-16.13938 3.2774,-22.79688 2.185,-6.6525 5.7616,-14.75156 10.7266,-24.28906 3.3774,-6.555 9.1376,-14.29828 17.285,-23.23828 8.14,-8.9425 12.7122,-14.40062 13.7072,-16.39062 l -1.1916,-8.04298 c -6.9574,6.16 -12.3236,11.02266 -16.0936,14.59766 -11.7226,11.3225 -19.2684,20.36718 -22.6484,27.11718 -5.165,10.33 -8.938,19.81314 -11.3204,28.45314 -2.385,8.6425 -3.5742,16.73906 -3.5742,24.28906 0,15.2975 3.1726,28.20686 9.5352,38.73436 5.56,9.3425 14.8978,18.47266 28.0078,27.41016 6.3574,4.5775 12.1672,8.0486 17.4296,10.4336 5.265,2.3825 10.481,3.57422 15.6484,3.57422 l 11.6172,-2.67968 c 0,-5.7575 -0.2496,-18.07422 -0.7422,-36.94922 -0.5,-18.87 -1.043,-41.96486 -1.6406,-69.27736 -0.5924,-27.3125 -0.8906,-49.3189 -0.8906,-66.0039 0,-13.9025 -0.4014,-24.03202 -1.1914,-30.39452 -1.195,-5.5575 -2.2862,-11.1211 -3.2812,-16.6836 l -2.3828,-26.51954 z"
       id="path352" />
  </g>
</svg>
